<svg version="1.1" viewBox="0.0 0.0 2048.0 2048.0" fill="none" stroke="none" stroke-linecap="square" stroke-miterlimit="10" xmlns:xlink="http://www.w3.org/1999/xlink" xmlns="http://www.w3.org/2000/svg"><clipPath id="ga5a1f95318_0_0.0"><path d="m0 0l2048.0 0l0 2048.0l-2048.0 0l0 -2048.0z" clip-rule="nonzero"/></clipPath><g clip-path="url(#ga5a1f95318_0_0.0)"><path fill="#ffffff" d="m0 0l2048.0 0l0 2048.0l-2048.0 0z" fill-rule="evenodd"/><path fill="#000000" fill-opacity="0.0" d="m102.40026 1024.0173l0 0c0 -508.97632 412.6068 -921.5832 921.5832 -921.5832l0.03363037 0l0 0c244.41907 0 478.8274 97.095085 651.6577 269.92545c172.83032 172.83038 269.9254 407.23865 269.9254 651.6577l0 0l0 0c0 508.97632 -412.6068 921.58325 -921.5831 921.58325l-0.03363037 0l0 0c-508.97638 0 -921.5832 -412.60693 -921.5832 -921.58325z" fill-rule="evenodd"/><path stroke="#77b7ff" stroke-width="8.0" stroke-linejoin="round" stroke-linecap="butt" d="m102.40026 1024.0173l0 0c0 -508.97632 412.6068 -921.5832 921.5832 -921.5832l0.03363037 0l0 0c244.41907 0 478.8274 97.095085 651.6577 269.92545c172.83032 172.83038 269.9254 407.23865 269.9254 651.6577l0 0l0 0c0 508.97632 -412.6068 921.58325 -921.5831 921.58325l-0.03363037 0l0 0c-508.97638 0 -921.5832 -412.60693 -921.5832 -921.58325z" fill-rule="evenodd"/><path fill="#000000" fill-opacity="0.0" d="m1821.8601 1484.6276l-1596.0844 -921.44165" fill-rule="evenodd"/><path stroke="#77b7ff" stroke-width="8.0" stroke-linejoin="round" stroke-linecap="butt" d="m1821.8601 1484.6276l-1596.0844 -921.44165" fill-rule="evenodd"/><path fill="#000000" fill-opacity="0.0" d="m1023.8127 102.401306l0 1842.9993" fill-rule="evenodd"/><path stroke="#77b7ff" stroke-width="8.0" stroke-linejoin="round" stroke-linecap="butt" d="m1023.8127 102.401306l0 1842.9993" fill-rule="evenodd"/><path fill="#000000" fill-opacity="0.0" d="m225.73094 1484.6329l1596.0844 -921.4415" fill-rule="evenodd"/><path stroke="#77b7ff" stroke-width="8.0" stroke-linejoin="round" stroke-linecap="butt" d="m225.73094 1484.6329l1596.0844 -921.4415" fill-rule="evenodd"/><path fill="#77b7ff" d="m332.8987 1023.9714l0 0c0 -381.66187 309.3981 -691.05994 691.05994 -691.05994l0.053466797 0l0 0c183.2804 0 359.0542 72.80786 488.65308 202.40677c129.59888 129.59888 202.40674 305.37268 202.40674 488.65314l0 0l0 0c0 381.6618 -309.39795 691.0599 -691.0598 691.0599l-0.053466797 0l0 0c-381.6618 0 -691.05994 -309.39807 -691.05994 -691.0599z" fill-rule="evenodd"/><path fill="#000000" fill-opacity="0.0" d="m1023.98535 332.91147l0 1382.1042" fill-rule="evenodd"/><path stroke="#ffffff" stroke-width="8.0" stroke-linejoin="round" stroke-linecap="butt" d="m1023.98535 332.91147l0 1382.1042" fill-rule="evenodd"/><path fill="#000000" fill-opacity="0.0" d="m1622.2369 1369.3593l-1196.9471 -690.9941" fill-rule="evenodd"/><path stroke="#ffffff" stroke-width="8.0" stroke-linejoin="round" stroke-linecap="butt" d="m1622.2369 1369.3593l-1196.9471 -690.9941" fill-rule="evenodd"/><path fill="#000000" fill-opacity="0.0" d="m425.28967 1369.3634l1196.9471 -690.99414" fill-rule="evenodd"/><path stroke="#ffffff" stroke-width="8.0" stroke-linejoin="round" stroke-linecap="butt" d="m425.28967 1369.3634l1196.9471 -690.99414" fill-rule="evenodd"/></g></svg>